# xmcd CD database file
#
# Track frame offsets:
#	150
#	17737
#	33807
#	47286
#	62911
#	74829
#	87918
#	100728
#	114281
#	138625
#	154514
#	164757
#	181802
#
# Disc length: 2654 seconds
#
# Revision: 0
# Processed by: cddbd v1.5.2PL0 Copyright (c) Steve Scherf et al.
# Submitted via: CDex 1.51
#
DISCID=a70a5c0d
DTITLE=Marlon Maciel - Ciúme Bobo
DYEAR=2005
DGENRE=Country
TTITLE0=Ciúme Bobo
TTITLE1=Chamamezeiro Mesmo
TTITLE2=Malicioso
TTITLE3=Buscando te Esquecer
TTITLE4=Pai Ubre
TTITLE5=Vaneira do Alisson
TTITLE6=Classe 34
TTITLE7=Uma Noite sem Você
TTITLE8=Cantar da Angola/Don Artur/Guia Lopes da Laguna
TTITLE9=Rancheira Animada
TTITLE10=Na Fazenda Santa Luzia
TTITLE11=Compadre Airton
TTITLE12=Ciúme Bobo (Bonus Track)
EXTD=YEAR: 2005
EXTT0=
EXTT1=
EXTT2=
EXTT3=
EXTT4=
EXTT5=
EXTT6=
EXTT7=
EXTT8=
EXTT9=
EXTT10=
EXTT11=
EXTT12=
PLAYORDER=
